{"title":"L (Babis Makridis, 2012)","uid":7896134,"size":1152120902,"categoryP":"video","categoryS":"movies","magnet":"?xt=urn:btih:1fa9268a0829bb3f609ba076c4891260c729e630&amp;dn=L+%28Babis+Makridis%2C+2012%29&amp;tr=udp%3A%2F%2Ftracker.openbittorrent.com%3A80&amp;tr=udp%3A%2F%2Fopen.demonii.com%3A1337&amp;tr=udp%3A%2F%2Ftracker.coppersurfer.tk%3A6969&amp;tr=udp%3A%2F%2Fexodus.desync.com%3A6969","seeders":2,"leechers":0,"uploader":"tonioferah","files":1,"time":1354844435,"description":"A man lives in his car.He is 40 years old and although he does not have a lot of free time, when he has, he chooses to spend it with his family. He meets his wife and two children at a specified day and time in car parking lots. His job is to locate and bring the finest honey to a 50-year old man. A new driver shows up and the man gets fired. Disappointed, he decides to leave his car behind. The man's life changes, and he finds it absurd that no one trusts him anymore.\n\n\n_______________________________________________________\n\n\nLanguage: Greek\nSubtitles: English, Greek\n\n_______________________________________________________\n\n\n\nGeneral\nComplete name                    : L.2012.DVDRip.x264-HANDJOB.mkv\nFormat                           : Matroska\nFile size                        : 1.07 GiB\nDuration                         : 1h 23mn\nOverall bit rate                 : 1 843 Kbps\nWriting application              : HandBrake 0.9.8\nWriting library                  : libmkv 0.6.5\n\nVideo\nID                               : 1\nFormat                           : AVC\nFormat/Info                      : Advanced Video Codec\nFormat profile                   : &lt;a class=&quot;__cf_email__&quot; href=&quot;/cdn-cgi/l/email-protection&quot; data-cfemail=&quot;a2eacbc5cae2ee918c93&quot;&gt;[email&amp;#160;protected]&lt;/a&gt;&lt;script cf-hash='f9e31' type=&quot;text/javascript&quot;&gt;\n/* &lt;![CDATA[ */!function(){try{var t=&quot;currentScript&quot;in document?document.currentScript:function(){for(var t=document.getElementsByTagName(&quot;script&quot;),e=t.length;e--;)if(t[e].getAttribute(&quot;cf-hash&quot;))return t[e]}();if(t&amp;&amp;t.previousSibling){var e,r,n,i,c=t.previousSibling,a=c.getAttribute(&quot;data-cfemail&quot;);if(a){for(e=&quot;&quot;,r=parseInt(a.substr(0,2),16),n=2;a.length-n;n+=2)i=parseInt(a.substr(n,2),16)^r,e+=String.fromCharCode(i);e=document.createTextNode(e),c.parentNode.replaceChild(e,c)}}}catch(u){}}();/* ]]&gt; */&lt;/script&gt;\nFormat settings, CABAC           : Yes\nFormat settings, ReFrames        : 9 frames\nCodec ID                         : V_MPEG4/ISO/AVC\nDuration                         : 1h 23mn\nBit rate                         : 1 422 Kbps\nWidth                            : 720 pixels\nHeight                           : 510 pixels\nDisplay aspect ratio             : 2.008\nFrame rate                       : 25.000 fps\nColor space                      : YUV\nChroma subsampling               : 4:2:0\nBit depth                        : 8 bits\nScan type                        : Progressive\nBits/(Pixel*Frame)               : 0.155\nStream size                      : 848 MiB (77%)\nWriting library                  : x264 core 120\n\nAudio\nID                               : 2\nFormat                           : AC-3\nFormat/Info                      : Audio Coding 3\nMode extension                   : CM (complete main)\nCodec ID                         : A_AC3\nDuration                         : 1h 23mn\nBit rate mode                    : Constant\nBit rate                         : 384 Kbps\nChannel(s)                       : 6 channels\nChannel positions                : Front: L C R, Side: L R, LFE\nSampling rate                    : 48.0 KHz\nBit depth                        : 16 bits\nCompression mode                 : Lossy\nStream size                      : 229 MiB (21%)\nLanguage                         : Greek","torrent":{"xt":"urn:btih:1fa9268a0829bb3f609ba076c4891260c729e630","amp;dn":"L+%28Babis+Makridis%2C+2012%29","amp;tr":["udp%3A%2F%2Ftracker.openbittorrent.com%3A80","udp%3A%2F%2Fopen.demonii.com%3A1337","udp%3A%2F%2Ftracker.coppersurfer.tk%3A6969","udp%3A%2F%2Fexodus.desync.com%3A6969"],"infoHash":"1fa9268a0829bb3f609ba076c4891260c729e630","infoHashBuffer":{"type":"Buffer","data":[31,169,38,138,8,41,187,63,96,155,160,118,196,137,18,96,199,41,230,48]},"announce":[],"urlList":[]}}